HIERARCHY
ROOT hip
{
  OFFSET 0 0 0
  CHANNELS 6 Xposition Yposition Zposition Zrotation Yrotation Xrotation
  JOINT abdomen
  {
    OFFSET 0 20.6881 -0.73152
    CHANNELS 3 Zrotation Xrotation Yrotation
    JOINT chest
    {
      OFFSET 0 11.7043 -0.48768
      CHANNELS 3 Zrotation Xrotation Yrotation
      JOINT neck
      {
        OFFSET 0 22.1894 -2.19456
        CHANNELS 3 Zrotation Xrotation Yrotation
        JOINT head
        {
          OFFSET -0.24384 7.07133 1.2192
          CHANNELS 3 Zrotation Xrotation Yrotation
          JOINT leftEye
          {
            OFFSET 4.14528 8.04674 8.04672
            CHANNELS 3 Zrotation Xrotation Yrotation
            End Site
            {
              OFFSET 1 0 0
            }
          }
          JOINT rightEye
          {
            OFFSET -3.6576 8.04674 8.04672
            CHANNELS 3 Zrotation Xrotation Yrotation
            End Site
            {
              OFFSET 1 0 0
            }
          }
        }
      }
      JOINT rCollar
      {
        OFFSET -2.68224 19.2634 -4.8768
        CHANNELS 3 Zrotation Xrotation Yrotation
        JOINT rShldr
        {
          OFFSET -8.77824 -1.95073 1.46304
          CHANNELS 3 Zrotation Xrotation Yrotation
          JOINT rForeArm
          {
            OFFSET -28.1742 -1.7115 0.48768
            CHANNELS 3 Zrotation Xrotation Yrotation
            JOINT rHand
            {
              OFFSET -22.5879 0.773209 7.07136
              CHANNELS 3 Zrotation Xrotation Yrotation
              JOINT rThumb1
              {
                OFFSET -1.2192 -0.487915 3.41376
                CHANNELS 3 Zrotation Xrotation Yrotation
                JOINT rThumb2
                {
                  OFFSET -3.37035 -0.52449 3.41376
                  CHANNELS 3 Zrotation Xrotation Yrotation
                  End Site
                  {
                    OFFSET -1.78271 -1.18214 1.43049
                  }
                }
              }
              JOINT rIndex1
              {
                OFFSET -7.75947 0.938293 5.60832
                CHANNELS 3 Zrotation Xrotation Yrotation
                JOINT rIndex2
                {
                  OFFSET -2.54057 -0.884171 1.56538
                  CHANNELS 3 Zrotation Xrotation Yrotation
                  End Site
                  {
                    OFFSET -1.62519 -0.234802 1.16502
                  }
                }
              }
              JOINT rMid1
              {
                OFFSET -8.24714 1.18213 3.41376
                CHANNELS 3 Zrotation Xrotation Yrotation
                JOINT rMid2
                {
                  OFFSET -3.10165 -0.590103 1.0647
                  CHANNELS 3 Zrotation Xrotation Yrotation
                  End Site
                  {
                    OFFSET -2.48547 -0.328903 0.83742
                  }
                }
              }
              JOINT rRing1
              {
                OFFSET -8.82822 0.546677 1.51678
                CHANNELS 3 Zrotation Xrotation Yrotation
                JOINT rRing2
                {
                  OFFSET -2.60934 -0.819778 -0.0198488
                  CHANNELS 3 Zrotation Xrotation Yrotation
                  End Site
                  {
                    OFFSET -2.33842 -0.294052 0.168128
                  }
                }
              }
              JOINT rPinky1
              {
                OFFSET -8.27202 -0.0477905 -0.4584
                CHANNELS 3 Zrotation Xrotation Yrotation
                JOINT rPinky2
                {
                  OFFSET -1.82734 -0.647385 -0.700984
                  CHANNELS 3 Zrotation Xrotation Yrotation
                  End Site
                  {
                    OFFSET -1.69225 -0.51767 -0.607171
                  }
                }
              }
            }
          }
        }
      }
      JOINT lCollar
      {
        OFFSET 2.68224 19.2634 -4.8768
        CHANNELS 3 Zrotation Xrotation Yrotation
        JOINT lShldr
        {
          OFFSET 8.77824 -1.95073 1.46304
          CHANNELS 3 Zrotation Xrotation Yrotation
          JOINT lForeArm
          {
            OFFSET 28.1742 -1.7115 0.48768
            CHANNELS 3 Zrotation Xrotation Yrotation
            JOINT lHand
            {
              OFFSET 22.5879 0.773209 7.07136
              CHANNELS 3 Zrotation Xrotation Yrotation
              JOINT lThumb1
              {
                OFFSET 1.2192 -0.487915 3.41376
                CHANNELS 3 Zrotation Xrotation Yrotation
                JOINT lThumb2
                {
                  OFFSET 3.37035 -0.52449 3.41376
                  CHANNELS 3 Zrotation Xrotation Yrotation
                  End Site
                  {
                    OFFSET 1.78271 -1.18214 1.43049
                  }
                }
              }
              JOINT lIndex1
              {
                OFFSET 7.75947 0.938293 5.60832
                CHANNELS 3 Zrotation Xrotation Yrotation
                JOINT lIndex2
                {
                  OFFSET 2.54057 -0.884171 1.56538
                  CHANNELS 3 Zrotation Xrotation Yrotation
                  End Site
                  {
                    OFFSET 1.62519 -0.234802 1.16502
                  }
                }
              }
              JOINT lMid1
              {
                OFFSET 8.24714 1.18213 3.41376
                CHANNELS 3 Zrotation Xrotation Yrotation
                JOINT lMid2
                {
                  OFFSET 3.10165 -0.590103 1.0647
                  CHANNELS 3 Zrotation Xrotation Yrotation
                  End Site
                  {
                    OFFSET 2.48547 -0.328903 0.83742
                  }
                }
              }
              JOINT lRing1
              {
                OFFSET 8.82822 0.546677 1.51678
                CHANNELS 3 Zrotation Xrotation Yrotation
                JOINT lRing2
                {
                  OFFSET 2.60934 -0.819778 -0.0198488
                  CHANNELS 3 Zrotation Xrotation Yrotation
                  End Site
                  {
                    OFFSET 2.33842 -0.294052 0.168128
                  }
                }
              }
              JOINT lPinky1
              {
                OFFSET 8.27202 -0.0477905 -0.4584
                CHANNELS 3 Zrotation Xrotation Yrotation
                JOINT lPinky2
                {
                  OFFSET 1.82734 -0.647385 -0.700984
                  CHANNELS 3 Zrotation Xrotation Yrotation
                  End Site
                  {
                    OFFSET 1.69225 -0.51767 -0.607171
                  }
                }
              }
            }
          }
        }
      }
    }
  }
  JOINT rButtock
  {
    OFFSET -8.77824 4.35084 1.2192
    CHANNELS 3 Zrotation Xrotation Yrotation
    JOINT rThigh
    {
      OFFSET 0 -1.70687 -2.19456
      CHANNELS 3 Zrotation Xrotation Yrotation
      JOINT rShin
      {
        OFFSET 0 -36.8199 0.73152
        CHANNELS 3 Zrotation Xrotation Yrotation
        JOINT rFoot
        {
          OFFSET 0.73152 -45.1104 -5.12064
          CHANNELS 3 Zrotation Xrotation Yrotation
          End Site
          {
            OFFSET -1.1221 -3.69964 12.103
          }
        }
      }
    }
  }
  JOINT lButtock
  {
    OFFSET 8.77824 4.35084 1.2192
    CHANNELS 3 Zrotation Xrotation Yrotation
    JOINT lThigh
    {
      OFFSET 0 -1.70687 -2.19456
      CHANNELS 3 Zrotation Xrotation Yrotation
      JOINT lShin
      {
        OFFSET 0 -36.8199 0.73152
        CHANNELS 3 Zrotation Xrotation Yrotation
        JOINT lFoot
        {
          OFFSET -0.73152 -45.1104 -5.12064
          CHANNELS 3 Zrotation Xrotation Yrotation
          End Site
          {
            OFFSET 1.1221 -3.69964 12.103
          }
        }
      }
    }
  }
}
MOTION
Frames:	8
Frame Time:	0.00833333
20.9633 59.2318 22.0463 0.739706 33.226215 2.310561 -2.761204 17.894758 0.739472 1.485249 -12.961636 8.724661 8.091351 22.578121 88.797324 -39.931548 11.118308 -103.82316 -2.285481 0.119615 -5.991113 2.338418 -0.068322 -3.346606 -143.56387 39.289962 146.89135 -78.786757 -0.720176 -28.893994 -43.311172 70.258133 -104.873538 -167.448282 -2.126426 143.630801 0.590256 1.05172 -0.659945 47.626674 -71.535048 -14.971404 -177.458007 -59.948906 119.000664 136.499384 -67.34214 75.555315 -158.781449 -5.14565 145.757057 15.984909 -42.628004 -4.694027 -75.226484 75.65797 94.273869 0.12439 50.167547 2.660716 70.654609 83.754253 -30.942509 -169.37395 70.80341 -150.236288 -4.359658 -44.641098 9.780632 -98.259058 37.505027 6.025934 -98.027794 -30.046071 -46.532734 169.198727 43.294868 -141.819702 78.505903 39.793493 -41.713002 -43.909127 -33.854537 -20.459424 91.072942 43.101629 -75.987141 174.132067 -22.318101 -113.380042 159.781774 -0.179478 -141.42023 167.95793 -6.31964 -140.733505 -1.49334 1.779559 -0.458753 -5.835372 0.177989 0.247445 -9.62026 43.381278 -11.41544 -56.936929 86.295809 19.605741 1.684012 -0.292395 1.674769 -24.263066 -61.565768 -110.12864 -100.010958 6.450269 5.763589 51.659846 45.088473 40.826781 179.356247 77.047691 -0.0 -171.577918 29.973779 112.640537 74.349371 -7.943322 -99.690343 91.118317 14.961797 -2.662595
22.6628 59.368900000000004 23.965 1.054288 38.159763 1.476182 -2.400142 17.581452 -0.0 2.150952 -12.663979 7.445819 -13.291493 27.167977 -93.444439 42.274261 10.854669 70.070203 -2.037213 0.087128 -4.897374 2.062931 -0.055324 -3.072068 -160.312607 -48.702837 170.263073 108.687322 18.248898 -62.565617 0.916223 64.637039 116.34354 -10.8127 -17.616346 -5.104861 -179.371794 -18.116869 89.710719 36.014915 -71.291912 27.419444 -63.490179 44.127269 51.981905 49.218781 -51.990292 9.271946 -159.553061 -7.009759 145.338679 -37.413728 60.99235 31.628408 0.657345 0.444552 -2.573385 7.747311 12.679793 5.339533 -144.157415 9.507519 -138.262967 11.051558 22.792813 -0.169834 150.402023 17.826536 -157.240717 -118.070419 -21.688548 162.158232 -138.648804 -39.387545 -71.592708 -175.126111 5.613041 -146.917764 -88.320598 -52.421857 -37.985829 58.954925 32.126281 -18.41418 109.538334 35.870732 -92.616721 121.821523 44.660137 -91.88621 162.107648 -6.698398 -142.175726 -7.670901 -25.546124 -0.347077 -1.412939 -0.077258 -0.984582 80.123034 79.87258 -89.871287 128.721 -27.641652 125.292239 136.070746 -14.713999 134.340028 -5.89959 -0.389695 -4.386093 -12.672163 -65.741536 -180.0 -97.921292 -55.68858 168.486417 -160.165091 -1.843029 104.187966 152.255619 75.985237 21.503742 -162.042478 31.332411 148.066081 82.143648 -43.441148 142.541934 58.788932 -4.07097 141.193579
24.3319 59.474700000000006 25.8684 1.059266 44.184526 0.45729 -2.055969 17.134439 0.524062 2.70488 -12.357069 4.638734 5.827572 30.518077 139.054285 -24.955026 39.281871 -153.118327 -1.419007 0.025324 -2.044732 1.784319 -0.024741 -1.58867 -156.455169 -5.488385 162.303547 81.329974 23.865039 -100.511045 -35.228462 -83.011966 172.699025 -170.013536 1.321991 141.96581 -176.612439 -14.197527 89.790918 -9.880968 -52.157477 1.819912 -3.374509 4.135411 1.05205 8.071742 5.168643 -0.234258 -158.856611 -2.543196 143.394769 -30.076504 57.17721 24.547521 -0.174103 8.912714 0.794718 -158.856553 -14.539586 169.856971 -145.129846 8.634812 -139.536992 42.652915 73.268739 -8.873521 -4.015349 -26.472109 5.749416 77.384669 -18.047957 -168.516611 173.926508 -66.140685 131.741962 7.565149 35.3385 -3.015185 -81.230449 -51.452705 -32.802751 38.266407 -82.937185 77.269969 172.351731 -52.712949 -121.517605 43.803951 55.88155 -34.42488 86.618229 59.889585 -77.614587 1.000361 10.99615 -5.529804 -1.793716 -4.444305 -0.081275 76.969632 80.279658 -87.889292 -11.395443 44.530345 -11.839772 160.97698 55.233562 147.505655 0.000532 -0.587578 0.051844 -29.729414 -62.203278 -32.844815 8.583851 86.615073 -79.655755 141.949806 17.45836 -50.189881 156.946166 76.298346 17.936426 -163.338929 33.847336 151.750261 76.945874 -58.858648 -7.62712 -19.613168 -31.869997 -80.920517
26.029200000000003 59.6532 27.745399999999997 0.577376 50.317308 -0.921132 -1.442815 16.686587 -0.0 3.502401 -12.070117 2.702139 -11.269568 30.897076 -118.943702 36.647595 26.307538 88.5151 -1.140198 0.000415 -0.041668 1.629073 0.003534 0.248539 -150.649262 21.841035 155.471832 -115.080215 -44.48941 -69.208144 38.571347 -20.169828 143.476991 -29.346094 41.42781 10.529953 -156.4267 7.059928 87.671105 -75.543308 -1.368064 29.986283 88.757381 -75.764247 41.836635 129.95555 -66.896679 68.121555 -161.531219 -8.214429 143.012547 91.186507 -81.143364 60.337179 -146.505766 -1.972969 -177.631051 -123.819402 -65.188005 -146.221222 -88.172025 -51.126348 -83.729132 -134.820943 -12.048921 -134.702039 155.027112 -5.546318 -162.491587 -123.240425 -8.951647 143.100989 171.165373 -43.221497 -97.768174 -151.608575 -43.504732 -136.379812 -71.30317 -48.876955 -25.754588 55.344119 33.923779 -22.152449 -37.654897 -57.78211 0.684083 80.677184 48.767645 -68.048097 -26.579391 -60.819758 -3.387103 6.722243 26.413715 -5.041177 73.426728 -73.108025 92.611217 -13.647197 -1.688048 3.40266 146.776812 15.432251 142.604297 -1.708257 2.296652 -1.649121 -0.000359 -0.146142 -0.140839 -32.874555 -61.215303 -29.837168 26.877197 76.361683 -83.706185 -91.060375 -70.431328 19.637392 0.827844 -0.935663 0.814568 8.033708 -36.451319 -0.0 -76.305237 60.009998 -48.365768 80.504608 -12.92067 149.737918
27.718700000000002 59.9897 29.579499999999996 -0.747178 56.345054 -2.582226 -1.958117 11.691928 141.057519 -9.313147 2.350018 -141.066375 1.993285 15.808755 40.707544 -22.64901 -16.839712 -68.055903 -1.193589 -0.002385 0.228956 1.706768 0.033591 2.254812 3.150676 -33.721625 -6.876222 -63.075065 36.311611 134.849632 49.42242 21.220715 150.317147 -132.96794 63.499926 107.948262 -96.044273 38.271834 53.419436 -74.354359 -2.648773 54.141077 -29.185467 30.322754 19.495778 75.159495 -59.718176 30.351838 14.743585 -43.424839 -0.867303 -164.205569 -5.272908 139.891525 -73.301293 -72.181797 -88.034801 -148.129214 -0.676632 175.477334 -79.804417 -53.709406 -74.316968 -144.934764 11.960934 -142.552678 43.432939 64.287432 -46.651738 90.01526 -5.307253 -72.568263 -15.530401 59.164967 103.31953 -159.985853 -31.558077 -142.45918 0.95054 0.264064 0.486452 147.436866 -56.256288 -116.822857 94.976604 39.740432 -80.179116 165.207779 -10.196384 -116.590701 -3.983493 -6.01894 0.64993 112.991742 60.117008 -102.061511 -1.540404 -1.846046 0.123695 -8.547923 14.065761 -1.745896 142.270995 0.124286 138.410862 0.436018 2.588607 -2.022688 0.001428 0.264277 -0.309514 -33.671571 -59.741794 -37.642161 -0.439608 78.091941 -134.841622 41.060661 -24.335211 161.255557 -179.924215 76.367174 -0.052511 -169.85212 37.492853 163.612966 86.414762 -61.203779 83.618496 -129.602972 -15.479498 175.025677
29.3339 60.359899999999996 31.3413 -3.084168 61.917627 -4.608717 1.019979 14.844328 -0.220253 5.140156 -11.903456 -1.902172 -13.173335 19.434586 -46.52408 29.985873 -13.57643 26.029351 -1.016408 0.009812 -1.106127 2.06051 0.061703 3.430117 -158.34322 -22.013319 165.658968 -2.746123 6.58006 -51.587609 -106.008005 46.426588 -108.069041 12.712338 -34.425677 2.944362 -173.216607 -8.707259 90.058027 -169.913266 -8.785485 92.639568 -167.352014 -43.113305 122.126975 148.69357 -68.115111 84.667625 -162.334988 -8.454837 141.513837 -3.484689 26.87987 5.507967 -1.398062 -1.677291 -0.128428 9.692169 -8.470005 1.042433 -156.640376 54.470496 -154.753197 -149.38718 11.761589 -141.762811 152.765537 -75.705509 177.924056 -104.402166 19.906648 81.624625 80.884616 23.387606 -137.017761 -13.467116 -30.996697 -6.496792 -87.267922 -52.709866 -37.542756 23.281453 -9.486602 18.845071 156.391822 -24.896772 -123.920535 -82.134803 -70.277214 -28.970575 37.379664 54.288419 -31.586761 147.10476 38.354846 -133.496322 0.021461 0.045045 -0.142964 -11.533362 -26.201569 2.603976 151.835794 31.914594 149.335585 7.333733 87.378695 -44.979344 -2.173689 0.267923 -2.182338 -30.136154 -58.495522 -0.0 51.758198 52.290682 -160.334314 126.953015 -36.426093 -113.141152 -0.344845 -0.76845 -0.340306 13.534131 -34.065182 -39.507404 -78.613428 16.807056 -6.253057 64.249093 -41.858977 133.422058
30.8439 60.589099999999995 33.042300000000004 -6.883149 67.264706 -7.687056 1.421929 9.337312 147.434071 -10.120091 2.571045 -152.206993 -15.164143 22.953958 -69.586869 36.95652 -1.964653 44.30104 -0.012235 0.000293 -2.748387 2.353531 0.077044 3.749357 -1.239201 1.550873 0.167878 -117.809849 -4.254477 132.177647 -151.408946 7.710324 -64.925658 1.983348 6.472582 1.034792 -78.447903 37.880205 42.298259 56.973877 -44.189342 24.637164 -45.759536 39.369664 36.943759 -170.570726 -14.361455 114.266334 -173.028091 -41.16257 143.271247 141.38155 -73.703723 105.992396 0.443718 -1.674562 -0.898539 6.514364 14.087385 2.99063 19.953651 86.529192 16.947001 -149.427304 12.603104 -143.464556 84.981322 68.170398 -88.840532 121.381148 12.039038 -75.921027 -4.634999 14.101101 114.854243 -176.922604 -8.875804 -142.691629 -179.797771 -15.459329 -92.358565 -170.988282 -22.113686 -102.348347 5.311658 4.143628 1.562072 61.237944 46.643256 -47.622734 1.661295 0.139135 2.194853 -1.965108 -0.072669 -1.514962 147.066661 -1.187525 178.130588 156.25405 76.130866 -170.866763 116.732952 -42.823617 112.54543 1.660355 -1.794919 0.553804 2.64274 -0.400045 1.316112 -37.056582 -55.765133 -127.679601 -63.445562 5.521491 -143.736921 -70.857851 -35.402516 174.654359 176.693194 77.076483 2.759609 -162.984107 40.72899 -11.03351 -66.90208 62.447373 -31.958215 -120.141733 72.320358 -141.711554
32.2408 60.765299999999996 34.7149 -12.649375 72.058294 -12.942028 2.670191 12.032643 52.101638 -3.677221 -13.393762 -59.542421 -3.98211 13.754108 14.229695 -9.759481 -25.013294 -46.549498 1.56095 -0.040281 -2.956264 2.198371 0.058779 3.062792 -1.248366 0.253686 -0.43035 -110.775867 3.99575 140.652779 6.242406 9.316408 -143.832737 154.124523 -36.844477 140.228931 113.205101 -49.333588 53.680135 -176.394304 -78.759525 144.250186 39.484968 -57.206417 -0.684563 -83.55696 46.356852 69.665169 8.352614 -20.115774 -2.675028 -167.000965 -5.420721 141.026484 -141.971547 -12.583101 -173.802617 14.147852 9.15907 -6.771181 -125.369358 -28.70229 -122.011894 3.009746 -2.943617 -3.394444 -4.425115 -26.693287 4.813359 87.803003 -13.728369 167.08541 -131.976292 -55.619113 132.992355 15.920966 8.777671 0.592983 -15.173718 -17.90478 0.726319 30.529525 30.508337 -16.858492 -7.156887 -18.788003 7.371111 -7.913109 10.758687 -2.852428 2.646542 -0.086374 1.485267 163.398297 -6.410141 -142.651372 3.334481 6.270244 -0.211671 136.619128 59.720762 -152.05607 -19.4087 79.729891 -14.88647 -55.934151 82.865308 17.558876 153.665545 75.889923 21.731431 166.816689 19.816493 4.290242 19.618824 51.179253 73.369476 14.244999 -3.180333 -93.525266 -0.008257 -1.925458 -0.245756 16.501896 -32.066892 29.161704 46.455888 82.237216 92.914619 -140.111773 -44.413573 144.678146
